<svg xmlns="http://www.w3.org/2000/svg" width="78" height="78" viewBox="0 0 78 78">
  <g id="classroom" transform="translate(-32 -32)">
    <path id="Path_9" data-name="Path 9" d="M56,368h2.786v19.5H56Z" transform="translate(-19.821 -277.5)" fill="#fe9d2a"/>
    <path id="Path_10" data-name="Path 10" d="M32,336H44.536v2.786H32Z" transform="translate(0 -251.071)" fill="#fe9d2a"/>
    <path id="Path_11" data-name="Path 11" d="M248,336h4.179v2.786H248Z" transform="translate(-178.393 -251.071)" fill="#fe9d2a"/>
    <path id="Path_12" data-name="Path 12" d="M303.321,464H289.393A1.394,1.394,0,0,0,288,465.393v1.393h19.5v-1.393A1.394,1.394,0,0,0,306.107,464Z" transform="translate(-211.429 -356.786)" fill="#fe9d2a"/>
    <path id="Path_13" data-name="Path 13" d="M136,400h2.786v8.357H136Z" transform="translate(-85.893 -303.929)" fill="#fe9d2a"/>
    <path id="Path_14" data-name="Path 14" d="M304,400h2.786v8.357H304Z" transform="translate(-224.643 -303.929)" fill="#fe9d2a"/>
    <path id="Path_15" data-name="Path 15" d="M135.321,464H121.393A1.394,1.394,0,0,0,120,465.393v1.393h19.5v-1.393A1.394,1.394,0,0,0,138.107,464Z" transform="translate(-72.679 -356.786)" fill="#fe9d2a"/>
    <path id="Path_16" data-name="Path 16" d="M120,337.75h19.5V328H120Zm8.357-6.964h2.786a1.393,1.393,0,0,1,0,2.786h-2.786a1.393,1.393,0,1,1,0-2.786Z" transform="translate(-72.679 -244.464)" fill="#fe9d2a"/>
    <path id="Path_17" data-name="Path 17" d="M66.786,36.179a1.393,1.393,0,0,1,1.393-1.393h58.5a1.393,1.393,0,0,1,1.393,1.393V68.214h2.786V33.393A1.394,1.394,0,0,0,129.464,32H65.393A1.394,1.394,0,0,0,64,33.393V68.214h2.786Z" transform="translate(-26.429 0)" fill="#fe9d2a"/>
    <path id="Path_18" data-name="Path 18" d="M128,240h11.143v5.571H128Z" transform="translate(-79.286 -171.786)" fill="#fe9d2a"/>
    <path id="Path_19" data-name="Path 19" d="M115.5,94.643h36.214V64H96V94.643h2.786V93.25a1.393,1.393,0,0,1,1.393-1.393h13.929A1.393,1.393,0,0,1,115.5,93.25Z" transform="translate(-52.857 -26.429)" fill="#fe9d2a"/>
    <path id="Path_20" data-name="Path 20" d="M448,368h2.786v19.5H448Z" transform="translate(-343.571 -277.5)" fill="#fe9d2a"/>
    <path id="Path_21" data-name="Path 21" d="M208,258.786h40.393a1.394,1.394,0,0,0,1.393-1.393V256H208Z" transform="translate(-145.357 -185)" fill="#fe9d2a"/>
    <path id="Path_22" data-name="Path 22" d="M416,336h11.143v2.786H416Z" transform="translate(-317.143 -251.071)" fill="#fe9d2a"/>
    <path id="Path_23" data-name="Path 23" d="M72.357,258.786V256H64v1.393a1.394,1.394,0,0,0,1.393,1.393Z" transform="translate(-26.429 -185)" fill="#fe9d2a"/>
    <path id="Path_24" data-name="Path 24" d="M288,337.75h19.5V328H288Zm8.357-6.964h2.786a1.393,1.393,0,1,1,0,2.786h-2.786a1.393,1.393,0,0,1,0-2.786Z" transform="translate(-211.429 -244.464)" fill="#fe9d2a"/>
    <path id="Path_25" data-name="Path 25" d="M200,400h2.786v8.357H200Z" transform="translate(-138.75 -303.929)" fill="#fe9d2a"/>
    <path id="Path_26" data-name="Path 26" d="M368,400h2.786v8.357H368Z" transform="translate(-277.5 -303.929)" fill="#fe9d2a"/>
  </g>
</svg>
