<svg xmlns="http://www.w3.org/2000/svg" width="76.729" height="78" viewBox="0 0 76.729 78">
  <g id="Group_28" data-name="Group 28" transform="translate(-686.912 -750)">
    <g id="Group_16" data-name="Group 16">
      <g id="Group_12" data-name="Group 12" transform="translate(0.985 -8)">
        <g id="interview" transform="translate(686 758)">
          <path id="Path_134" data-name="Path 134" d="M215.465,352.448h-3.807v-5.329h.3a4.573,4.573,0,0,0,4.568-4.568V333.72a4.573,4.573,0,0,0-4.568-4.568h-5.177a4.573,4.573,0,0,0-4.568,4.568v8.831a4.573,4.573,0,0,0,4.568,4.568h.3v5.329h-3.807a2.284,2.284,0,0,0,0,4.568h12.181a2.284,2.284,0,0,0,0-4.568Z" transform="translate(-170.395 -279.058)" fill="#fe9d2a"/>
          <path id="Path_135" data-name="Path 135" d="M178.554,95.546l-1.816-6.054V77.342a6.862,6.862,0,0,0-4.381-6.389V81.185a11.433,11.433,0,0,1-11.42,11.42h-19.2l-1.108.692a6.863,6.863,0,0,0,6.568,4.9h20.509l4.049,2.53a4.568,4.568,0,0,0,6.8-5.186Z" transform="translate(-119.218 -60.173)" fill="#fe9d2a"/>
          <path id="Path_136" data-name="Path 136" d="M105.181,21.164V7A6.86,6.86,0,0,0,98.329.152H75.642A6.86,6.86,0,0,0,68.79,7v12.3l-1.816,6.054a4.562,4.562,0,0,0,6.8,5.186h0l3.968-2.48.081-.051h20.51A6.86,6.86,0,0,0,105.181,21.164Z" transform="translate(-56.609 -0.152)" fill="#fe9d2a"/>
        </g>
        <path id="Path_139" data-name="Path 139" d="M17.128,0H1.427a1.427,1.427,0,0,0,0,2.855h15.7a1.427,1.427,0,1,0,0-2.855Z" transform="translate(720.773 781.157) rotate(-90)" fill="#f5f6f7"/>
        <path id="Path_140" data-name="Path 140" d="M1.427,2.855H9.991A1.427,1.427,0,1,0,9.991,0H1.427a1.427,1.427,0,0,0,0,2.855Z" transform="translate(715.064 781.157) rotate(-90)" fill="#f5f6f7"/>
        <path id="Path_141" data-name="Path 141" d="M1.073,2.855H7.511c.593,0,1.073-.638,1.073-1.427S8.1,0,7.511,0H1.073C.48,0,0,.638,0,1.427S.48,2.855,1.073,2.855Z" transform="translate(709.354 781.157) rotate(-90)" fill="#f5f6f7"/>
      </g>
    </g>
    <g id="male" transform="translate(738.781 795.083)">
      <path id="Path_143" data-name="Path 143" d="M111.115,15.985c3.634,0,6.58-3.578,6.58-7.992S116.728,0,111.115,0s-6.58,3.578-6.58,7.993S107.481,15.985,111.115,15.985Z" transform="translate(-98.685)" fill="#fe9d2a"/>
      <path id="Path_144" data-name="Path 144" d="M41.9,300.51c0-.269,0-.076,0,0Z" transform="translate(-41.895 -272.322)" fill="#fe9d2a"/>
      <path id="Path_145" data-name="Path 145" d="M308.085,301.731c0-.074,0-.511,0,0Z" transform="translate(-283.227 -273.332)" fill="#fe9d2a"/>
      <path id="Path_146" data-name="Path 146" d="M66.751,189.008c-.122-7.69-1.126-9.881-8.811-11.268l-3.6,2.786-3.6-2.786c-7.6,1.372-8.666,3.53-8.807,11.018-.011.611-.017.644-.019.573,0,.133,0,4.067,0,4.5H54.337c10.6,0,12.428.232,12.428.232s0-4.388,0-4.518A4.941,4.941,0,0,1,66.751,189.008Z" transform="translate(-41.907 -161.142)" fill="#fe9d2a"/>
    </g>
    <g id="male-2" data-name="male" transform="translate(686.912 795.315)">
      <path id="Path_143-2" data-name="Path 143" d="M111.115,15.985c3.634,0,6.58-3.578,6.58-7.992S116.728,0,111.115,0s-6.58,3.578-6.58,7.993S107.481,15.985,111.115,15.985Z" transform="translate(-98.685)" fill="#fe9d2a"/>
      <path id="Path_144-2" data-name="Path 144" d="M41.9,300.51c0-.269,0-.076,0,0Z" transform="translate(-41.895 -272.322)" fill="#fe9d2a"/>
      <path id="Path_145-2" data-name="Path 145" d="M308.085,301.731c0-.074,0-.511,0,0Z" transform="translate(-283.227 -273.332)" fill="#fe9d2a"/>
      <path id="Path_146-2" data-name="Path 146" d="M66.751,189.008c-.122-7.69-1.126-9.881-8.811-11.268l-3.6,2.852-3.6-2.852c-7.6,1.372-8.666,3.53-8.807,11.018-.011.611-.017.644-.019.573,0,.133,0,4.067,0,4.5H66.765s0-4.156,0-4.286A4.941,4.941,0,0,1,66.751,189.008Z" transform="translate(-41.907 -161.142)" fill="#fe9d2a"/>
    </g>
  </g>
</svg>
