<svg xmlns="http://www.w3.org/2000/svg" width="76.729" height="78" viewBox="0 0 76.729 78">
  <g id="Group_25" data-name="Group 25" transform="translate(-686.912 -750)">
    <g id="Group_16" data-name="Group 16">
      <g id="Group_12" data-name="Group 12" transform="translate(0.985 -8)">
        <path id="Subtraction_7" data-name="Subtraction 7" d="M33.917-950.041H21.737a2.287,2.287,0,0,1-2.284-2.284,2.287,2.287,0,0,1,2.284-2.284h3.807v-5.329h-.305a4.573,4.573,0,0,1-4.567-4.568v-8.831a4.573,4.573,0,0,1,4.567-4.568h5.177a4.573,4.573,0,0,1,4.568,4.568v8.831a4.574,4.574,0,0,1-4.568,4.568h-.3v5.329h3.806a2.287,2.287,0,0,1,2.284,2.284A2.287,2.287,0,0,1,33.917-950.041Zm9.9-36.7a4.581,4.581,0,0,1-2.426-.7l-4.048-2.53H16.829a6.78,6.78,0,0,1-4.132-1.39,6.922,6.922,0,0,1-2.437-3.515l1.108-.692h19.2a11.433,11.433,0,0,0,11.42-11.42v-10.232a6.857,6.857,0,0,1,3.15,2.477,6.8,6.8,0,0,1,1.23,3.912v12.15l1.816,6.054a4.531,4.531,0,0,1-1.6,4.945A4.527,4.527,0,0,1,43.814-986.738ZM3.584-996.9a4.533,4.533,0,0,1-2.768-.944,4.532,4.532,0,0,1-1.6-4.944l1.816-6.054v-12.3A6.86,6.86,0,0,1,7.881-1028H30.568a6.86,6.86,0,0,1,6.853,6.852v14.161a6.86,6.86,0,0,1-6.853,6.852H10.058l-.081.05-3.968,2.48A4.574,4.574,0,0,1,3.584-996.9Zm21.464-26.5a1.429,1.429,0,0,0-1.427,1.427v15.7a1.429,1.429,0,0,0,1.427,1.427,1.429,1.429,0,0,0,1.427-1.427v-15.7A1.429,1.429,0,0,0,25.048-1023.4Zm-5.71,7.137a1.429,1.429,0,0,0-1.426,1.427v8.564a1.429,1.429,0,0,0,1.426,1.427,1.429,1.429,0,0,0,1.427-1.427v-8.564A1.429,1.429,0,0,0,19.338-1016.261Zm-5.709,2.835c-.787,0-1.427.481-1.427,1.073v6.438c0,.592.64,1.073,1.427,1.073s1.427-.481,1.427-1.073v-6.438C15.057-1012.945,14.417-1013.426,13.63-1013.426Z" transform="translate(697.152 1786)" fill="#aab5b9"/>
      </g>
    </g>
    <g id="male" transform="translate(738.781 795.083)">
      <path id="Path_143" data-name="Path 143" d="M111.115,15.985c3.634,0,6.58-3.578,6.58-7.992S116.728,0,111.115,0s-6.58,3.578-6.58,7.993S107.481,15.985,111.115,15.985Z" transform="translate(-98.685)" fill="#aab5b9"/>
      <path id="Path_144" data-name="Path 144" d="M41.9,300.51c0-.269,0-.076,0,0Z" transform="translate(-41.895 -272.322)" fill="#aab5b9"/>
      <path id="Path_145" data-name="Path 145" d="M308.085,301.731c0-.074,0-.511,0,0Z" transform="translate(-283.227 -273.332)" fill="#aab5b9"/>
      <path id="Path_146" data-name="Path 146" d="M66.751,189.008c-.122-7.69-1.126-9.881-8.811-11.268l-3.6,2.786-3.6-2.786c-7.6,1.372-8.666,3.53-8.807,11.018-.011.611-.017.644-.019.573,0,.133,0,4.067,0,4.5H54.337c10.6,0,12.428.232,12.428.232s0-4.388,0-4.518A4.941,4.941,0,0,1,66.751,189.008Z" transform="translate(-41.907 -161.142)" fill="#aab5b9"/>
    </g>
    <g id="male-2" data-name="male" transform="translate(686.912 795.315)">
      <path id="Path_143-2" data-name="Path 143" d="M111.115,15.985c3.634,0,6.58-3.578,6.58-7.992S116.728,0,111.115,0s-6.58,3.578-6.58,7.993S107.481,15.985,111.115,15.985Z" transform="translate(-98.685)" fill="#aab5b9"/>
      <path id="Path_144-2" data-name="Path 144" d="M41.9,300.51c0-.269,0-.076,0,0Z" transform="translate(-41.895 -272.322)" fill="#aab5b9"/>
      <path id="Path_145-2" data-name="Path 145" d="M308.085,301.731c0-.074,0-.511,0,0Z" transform="translate(-283.227 -273.332)" fill="#aab5b9"/>
      <path id="Path_146-2" data-name="Path 146" d="M66.751,189.008c-.122-7.69-1.126-9.881-8.811-11.268l-3.6,2.852-3.6-2.852c-7.6,1.372-8.666,3.53-8.807,11.018-.011.611-.017.644-.019.573,0,.133,0,4.067,0,4.5H66.765s0-4.156,0-4.286A4.941,4.941,0,0,1,66.751,189.008Z" transform="translate(-41.907 -161.142)" fill="#aab5b9"/>
    </g>
  </g>
</svg>
