<svg xmlns="http://www.w3.org/2000/svg" width="83.079" height="73.51" viewBox="0 0 83.079 73.51">
  <g id="Group_22" data-name="Group 22" transform="translate(-921 -517.496)">
    <g id="Group_7" data-name="Group 7" transform="translate(921 518)">
      <g id="assessment" transform="translate(0 0.042)">
        <path id="Path_46" data-name="Path 46" d="M37,53H48.118v2.779H37Z" transform="translate(10.251 8.847)" fill="#aab5b9"/>
        <path id="Path_47" data-name="Path 47" d="M19.258,53H30.017v2.779H19.258Z" transform="translate(3.336 8.847)" fill="#aab5b9"/>
        <path id="Path_48" data-name="Path 48" d="M52.258,54.989l-1.965,1.965,5.267,5.267L67.648,47.112l-2.171-1.737L55.329,58.06Z" transform="translate(15.431 5.875)" fill="#aab5b9"/>
        <path id="Path_49" data-name="Path 49" d="M63.677,63.677h-13.9v-13.9h8.338V47H47V66.456H66.456V55.338H63.677Z" transform="translate(14.148 6.509)" fill="#aab5b9"/>
        <path id="Path_60" data-name="Path 60" d="M33.169,51.519a12.427,12.427,0,0,1-3.829-.693A32.026,32.026,0,0,0,29,55.5v3.982h8.338V55.5A32.017,32.017,0,0,0,37,50.87a12.236,12.236,0,0,1-3.834.649Z" transform="translate(7.133 8)" fill="#aab5b9"/>
        <path id="Path_61" data-name="Path 61" d="M3,41V66.015H22.458V41Zm2.779,2.779H8.559v2.779H5.779Zm13.9,19.456H5.779V60.456h13.9Zm0-5.559H5.779V54.9h13.9Zm0-5.559H5.779V49.338h13.9Zm0-5.559H11.338V43.779h8.338Z" transform="translate(-3 4.17)" fill="#aab5b9"/>
        <path id="Path_62" data-name="Path 62" d="M67.64,34.044A30.4,30.4,0,0,0,54.51,8.925a15.193,15.193,0,0,1,.607,4A27.773,27.773,0,1,1,19,55.124v3.565a30.265,30.265,0,0,0,18.066,5.93A30.608,30.608,0,0,0,67.64,34.044Z" transform="translate(3.236 -8.33)" fill="#aab5b9"/>
        <path id="Path_63" data-name="Path 63" d="M29,61.949a1.392,1.392,0,0,0,1.39,1.39h5.559a1.392,1.392,0,0,0,1.39-1.39V55H29Z" transform="translate(7.133 9.627)" fill="#aab5b9"/>
        <path id="Path_64" data-name="Path 64" d="M24.074,8.5A30.778,30.778,0,0,0,10,34.211a30.387,30.387,0,0,0,4.967,16.677h3.426a27.686,27.686,0,0,1,4.166-37.828A10.111,10.111,0,0,1,24.074,8.5Z" transform="translate(-0.272 -8.497)" fill="#aab5b9"/>
      </g>
      <ellipse id="Ellipse_5" data-name="Ellipse 5" cx="26.5" cy="26" rx="26.5" ry="26" transform="translate(13.875 -0.504)" fill="#aab5b9"/>
    </g>
    <g id="user_1_" data-name="user (1)" transform="translate(950.078 528.446)">
      <path id="Path_84" data-name="Path 84" d="M93.9,13.736a6.645,6.645,0,0,0,4.856-2.012,6.645,6.645,0,0,0,2.012-4.856,6.646,6.646,0,0,0-2.012-4.856,6.866,6.866,0,0,0-9.712,0,6.646,6.646,0,0,0-2.012,4.856,6.645,6.645,0,0,0,2.012,4.856A6.647,6.647,0,0,0,93.9,13.736Zm0,0" transform="translate(-82.185 0)" fill="#f5f6f7"/>
      <path id="Path_85" data-name="Path 85" d="M23.732,255.469a16.962,16.962,0,0,0-.231-1.8,14.2,14.2,0,0,0-.443-1.812,8.948,8.948,0,0,0-.745-1.689A6.376,6.376,0,0,0,21.19,248.7a4.952,4.952,0,0,0-1.613-1.014,5.576,5.576,0,0,0-2.059-.373,2.091,2.091,0,0,0-1.116.473c-.335.218-.726.471-1.163.75a6.665,6.665,0,0,1-1.5.663,5.842,5.842,0,0,1-3.681,0,6.647,6.647,0,0,1-1.5-.663c-.433-.276-.824-.529-1.164-.75a2.087,2.087,0,0,0-1.116-.473,5.567,5.567,0,0,0-2.059.373A4.946,4.946,0,0,0,2.6,248.7a6.376,6.376,0,0,0-1.123,1.463,8.966,8.966,0,0,0-.745,1.69,14.23,14.23,0,0,0-.443,1.811,16.9,16.9,0,0,0-.231,1.8c-.038.546-.057,1.112-.057,1.684a4.735,4.735,0,0,0,1.406,3.582,5.062,5.062,0,0,0,3.624,1.322H18.76a5.061,5.061,0,0,0,3.624-1.322,4.733,4.733,0,0,0,1.406-3.582c0-.575-.02-1.141-.058-1.684Zm0,0" transform="translate(0 -233.542)" fill="#f5f6f7"/>
    </g>
  </g>
</svg>
