<svg xmlns="http://www.w3.org/2000/svg" width="83.079" height="73.51" viewBox="0 0 83.079 73.51">
  <g id="Group_23" data-name="Group 23" transform="translate(-921 -517.496)">
    <path id="Subtraction_5" data-name="Subtraction 5" d="M82.479-959.994H63.023V-979.45H74.14v2.779H65.8v13.9H79.7v-8.339h2.779v11.117Zm-37.523,0H39.4a1.391,1.391,0,0,1-1.39-1.39v-8.074a32,32,0,0,1,.34-4.675,12.261,12.261,0,0,0,3.829.693,12.3,12.3,0,0,0,3.834-.649,31.947,31.947,0,0,1,.336,4.631v8.074A1.392,1.392,0,0,1,44.956-959.994Zm-23.623-2.779H1.875v-25.016H21.331l0,25.015ZM4.654-968.333v2.78h13.9v-2.78Zm0-5.558v2.779h13.9v-2.779Zm0-5.559v2.779h13.9v-2.779Zm5.559-5.558v2.779h8.339v-2.779Zm-5.559,0v2.779h2.78v-2.779Zm68.212,20.146h0L67.6-970.129l1.966-1.966,3.071,3.072,10.148-12.685,2.171,1.737L72.867-964.863Zm-12.623-3.47H49.126v-2.779H60.243v2.778Zm-25.015,0H24.469v-2.779H35.228v2.778Zm6.949-8.339A30.308,30.308,0,0,1,24.11-982.6v-3.565a27.772,27.772,0,0,0,18.067,6.715,27.826,27.826,0,0,0,27.795-27.795,27.757,27.757,0,0,0-9.743-21.121,15.212,15.212,0,0,0-.607-4,30.555,30.555,0,0,1,9.637,10.871,30.4,30.4,0,0,1,2.593,6.83,30.927,30.927,0,0,1,.9,7.419A30.609,30.609,0,0,1,42.177-976.671Zm.073-4.833a26.773,26.773,0,0,1-10.315-2.043,26.447,26.447,0,0,1-8.424-5.572,25.892,25.892,0,0,1-5.679-8.264,25.417,25.417,0,0,1-2.083-10.12,25.417,25.417,0,0,1,2.083-10.12,25.892,25.892,0,0,1,5.679-8.264,26.447,26.447,0,0,1,8.424-5.572A26.775,26.775,0,0,1,42.25-1033.5a26.774,26.774,0,0,1,10.315,2.043,26.446,26.446,0,0,1,8.423,5.572,25.892,25.892,0,0,1,5.679,8.264,25.418,25.418,0,0,1,2.082,10.12,25.418,25.418,0,0,1-2.082,10.12,25.892,25.892,0,0,1-5.679,8.264,26.444,26.444,0,0,1-8.423,5.572A26.772,26.772,0,0,1,42.25-981.5Zm-5.027-27.276a5.563,5.563,0,0,0-2.058.374,4.945,4.945,0,0,0-1.614,1.013,6.337,6.337,0,0,0-1.122,1.463,8.957,8.957,0,0,0-.745,1.689,14.273,14.273,0,0,0-.443,1.812,17.044,17.044,0,0,0-.231,1.8c-.038.543-.057,1.109-.057,1.683a4.74,4.74,0,0,0,1.406,3.583,5.064,5.064,0,0,0,3.624,1.321H49.712a5.067,5.067,0,0,0,3.624-1.321,4.734,4.734,0,0,0,1.406-3.583c0-.581-.019-1.148-.058-1.684a16.854,16.854,0,0,0-.23-1.8,14.268,14.268,0,0,0-.444-1.812,8.9,8.9,0,0,0-.744-1.689,6.351,6.351,0,0,0-1.123-1.463,4.962,4.962,0,0,0-1.613-1.014,5.591,5.591,0,0,0-2.059-.373,2.092,2.092,0,0,0-1.117.473c-.343.224-.734.476-1.163.75a6.623,6.623,0,0,1-1.5.663,5.974,5.974,0,0,1-1.84.3,5.985,5.985,0,0,1-1.84-.3,6.67,6.67,0,0,1-1.5-.662c-.507-.325-.866-.557-1.164-.751A2.087,2.087,0,0,0,37.223-1008.78Zm5.445-13.774a6.649,6.649,0,0,0-4.856,2.012,6.649,6.649,0,0,0-2.012,4.856,6.642,6.642,0,0,0,2.012,4.856,6.642,6.642,0,0,0,4.855,2.012,6.646,6.646,0,0,0,4.856-2.012,6.645,6.645,0,0,0,2.012-4.856,6.646,6.646,0,0,0-2.012-4.856A6.645,6.645,0,0,0,42.668-1022.554ZM20-990.568H16.57a30.435,30.435,0,0,1-4.967-16.677,30.5,30.5,0,0,1,3.812-14.7,30.974,30.974,0,0,1,10.263-11.015,10.17,10.17,0,0,0-1.516,4.562,27.757,27.757,0,0,0-9.779,21.152,27.5,27.5,0,0,0,5.612,16.675Z" transform="translate(919.125 1551)" fill="#aab5b9"/>
  </g>
</svg>
