<svg id="growth" xmlns="http://www.w3.org/2000/svg" width="77" height="77" viewBox="0 0 77 77">
  <path id="Path_41" data-name="Path 41" d="M58.344,0H5.406A2.424,2.424,0,0,0,3,2.406V29.677A8.818,8.818,0,0,0,11.823,38.5h8.053a14.428,14.428,0,0,1,24,0h8.053a8.818,8.818,0,0,0,8.823-8.823V2.406A2.424,2.424,0,0,0,58.344,0ZM46.313,20.052a2.4,2.4,0,0,1-4.107,1.7l-2.522-2.522-4.572,4.193a2.4,2.4,0,0,1-2.827.321l-4.017-2.3-6.725,6.721a2.406,2.406,0,0,1-3.4-3.4l8.021-8.021a2.4,2.4,0,0,1,2.894-.388l4.084,2.336,3.131-2.868-2.089-2.092a2.4,2.4,0,0,1,1.7-4.107h8.021a2.407,2.407,0,0,1,2.406,2.406Z" transform="translate(6.625)" fill="#aab5b9"/>
  <circle id="Ellipse_2" data-name="Ellipse 2" cx="6.417" cy="6.417" r="6.417" transform="translate(6.417 41.708)" fill="#aab5b9"/>
  <path id="Path_42" data-name="Path 42" d="M21.4,19.283a13.445,13.445,0,0,0-5.358,10.748v.8H2.406A2.424,2.424,0,0,1,0,28.427v-1.6A8.818,8.818,0,0,1,8.823,18h8.021A8.765,8.765,0,0,1,21.4,19.283Z" transform="translate(0 39.75)" fill="#aab5b9"/>
  <circle id="Ellipse_3" data-name="Ellipse 3" cx="6.417" cy="6.417" r="6.417" transform="translate(57.75 41.708)" fill="#aab5b9"/>
  <path id="Path_43" data-name="Path 43" d="M38.73,26.823v1.6a2.424,2.424,0,0,1-2.406,2.406H22.688v-.8A13.445,13.445,0,0,0,17.33,19.283,8.765,8.765,0,0,1,21.886,18h8.021A8.818,8.818,0,0,1,38.73,26.823Z" transform="translate(38.27 39.75)" fill="#aab5b9"/>
  <circle id="Ellipse_4" data-name="Ellipse 4" cx="9.625" cy="9.625" r="9.625" transform="translate(28.875 36.896)" fill="#aab5b9"/>
  <path id="Path_44" data-name="Path 44" d="M32.969,19H15.323A8.83,8.83,0,0,0,6.5,27.823v4.813a2.407,2.407,0,0,0,2.406,2.406H39.385a2.407,2.407,0,0,0,2.406-2.406V27.823A8.83,8.83,0,0,0,32.969,19Z" transform="translate(14.354 41.958)" fill="#aab5b9"/>
  <path id="Path_45" data-name="Path 45" d="M69.177,4.813H3.406A2.406,2.406,0,0,1,3.406,0H69.177a2.406,2.406,0,0,1,0,4.813Z" transform="translate(2.208)" fill="#aab5b9"/>
</svg>
