<svg xmlns="http://www.w3.org/2000/svg" width="78" height="78" viewBox="0 0 78 78">
  <g id="Group_27" data-name="Group 27" transform="translate(-684 -293)">
    <g id="class" transform="translate(684 293)">
      <path id="Path_89" data-name="Path 89" d="M2.285,409.434H23v-6.855A11.557,11.557,0,0,0,11.578,391,11.687,11.687,0,0,0,0,402.578v4.57A2.285,2.285,0,0,0,2.285,409.434Zm0,0" transform="translate(0 -331.434)" fill="#fe9d2a"/>
      <path id="Path_90" data-name="Path 90" d="M43.863,307.855A6.856,6.856,0,0,0,37.008,301a6.857,6.857,0,1,0,0,13.711A6.856,6.856,0,0,0,43.863,307.855Zm0,0" transform="translate(-25.43 -255.145)" fill="#fe9d2a"/>
      <path id="Path_91" data-name="Path 91" d="M181,402.578v6.855h23v-6.855A11.687,11.687,0,0,0,192.426,391,11.557,11.557,0,0,0,181,402.578Zm0,0" transform="translate(-153.426 -331.434)" fill="#fe9d2a"/>
      <path id="Path_92" data-name="Path 92" d="M224.863,307.855A6.987,6.987,0,0,0,217.855,301a6.855,6.855,0,1,0,0,13.711A6.987,6.987,0,0,0,224.863,307.855Zm0,0" transform="translate(-178.855 -255.145)" fill="#fe9d2a"/>
      <path id="Path_93" data-name="Path 93" d="M373.426,391A11.557,11.557,0,0,0,362,402.578v6.855h20.566a2.285,2.285,0,0,0,2.285-2.285v-4.57A11.557,11.557,0,0,0,373.426,391Zm0,0" transform="translate(-306.852 -331.434)" fill="#fe9d2a"/>
      <path id="Path_94" data-name="Path 94" d="M405.711,307.855A6.855,6.855,0,1,1,398.855,301,6.856,6.856,0,0,1,405.711,307.855Zm0,0" transform="translate(-332.281 -255.145)" fill="#fe9d2a"/>
      <path id="Path_95" data-name="Path 95" d="M405.711,67.855A6.855,6.855,0,1,1,398.855,61,6.856,6.856,0,0,1,405.711,67.855Zm0,0" transform="translate(-332.281 -51.707)" fill="#fe9d2a"/>
      <path id="Path_96" data-name="Path 96" d="M373.426,151A11.426,11.426,0,0,0,362,162.426v18.281a11.426,11.426,0,0,1,22.852,0V162.426A11.426,11.426,0,0,0,373.426,151Zm0,0" transform="translate(-306.852 -127.996)" fill="#fe9d2a"/>
      <g id="Group_11" data-name="Group 11">
        <path id="Path_97" data-name="Path 97" d="M2.285,36.715H50.578V34.43a15.926,15.926,0,0,1,4.57-11.159V2.285A2.284,2.284,0,0,0,52.863,0H2.285A2.284,2.284,0,0,0,0,2.285V34.43A2.284,2.284,0,0,0,2.285,36.715ZM27.574,11.578a2.285,2.285,0,1,1,4.57,0V25.289a2.285,2.285,0,1,1-4.57,0Zm-9.141,4.57a2.285,2.285,0,0,1,4.57,0v9.141a2.285,2.285,0,0,1-4.57,0Zm-9.141,4.57a2.285,2.285,0,1,1,4.57,0v4.57a2.285,2.285,0,1,1-4.57,0Zm0,0" fill="#fe9d2a"/>
      </g>
    </g>
    <g id="Path_98" data-name="Path 98" transform="translate(686.705 296.343)" fill="none">
      <path d="M1.819,0H47.3a1.826,1.826,0,0,1,1.819,1.834V28.42A1.826,1.826,0,0,1,47.3,30.254H1.819A1.826,1.826,0,0,1,0,28.42V1.834A1.826,1.826,0,0,1,1.819,0Z" stroke="none"/>
      <path d="M 2 2 L 2 28.25362014770508 L 47.11423873901367 28.25362014770508 L 47.11423873901367 2 L 2 2 M 1.819049835205078 0 L 47.29518890380859 0 C 48.29981994628906 0 49.11423873901367 0.8209095001220703 49.11423873901367 1.833549499511719 L 49.11423873901367 28.42007064819336 C 49.11423873901367 29.43271064758301 48.29981994628906 30.25362014770508 47.29518890380859 30.25362014770508 L 1.819049835205078 30.25362014770508 C 0.8144111633300781 30.25362014770508 0 29.43271064758301 0 28.42007064819336 L 0 1.833549499511719 C 0 0.8209095001220703 0.8144111633300781 0 1.819049835205078 0 Z" stroke="none" fill="#f5f6f7"/>
    </g>
  </g>
</svg>
