<svg xmlns="http://www.w3.org/2000/svg" width="97.674" height="78" viewBox="0 0 97.674 78">
  <g id="Group_21" data-name="Group 21" transform="translate(-1154 -293)">
    <g id="contact_4_" data-name="contact (4)" transform="translate(1154 307.416)">
      <g id="Group_5" data-name="Group 5" transform="translate(0 0)">
        <path id="Path_36" data-name="Path 36" d="M95.3,151.963H60.612v6.789a10.851,10.851,0,0,1-10.839,10.839H47.9a10.852,10.852,0,0,1-10.839-10.839v-6.789H2.376A2.376,2.376,0,0,0,0,154.34v58.831a2.376,2.376,0,0,0,2.376,2.376H95.3a2.376,2.376,0,0,0,2.376-2.376V154.34A2.377,2.377,0,0,0,95.3,151.963Zm-8.357,47.2H58.665a3.835,3.835,0,0,1,0-7.671H86.942a3.835,3.835,0,1,1,0,7.671Zm0-16.613H58.665a3.835,3.835,0,0,1,0-7.671H86.942a3.835,3.835,0,1,1,0,7.671Z" transform="translate(0 -151.963)" fill="#aab5b9"/>
      </g>
    </g>
    <g id="Rectangle_6" data-name="Rectangle 6" transform="translate(1159.124 313.497)" fill="none" stroke="#f5f6f7" stroke-width="2">
      <rect width="88.395" height="52.525" rx="2" stroke="none"/>
      <rect x="1" y="1" width="86.395" height="50.525" rx="1" fill="none"/>
    </g>
    <path id="Path_37" data-name="Path 37" d="M267.3,89.079h1.871a6.237,6.237,0,0,0,6.237-6.237V67.873a6.236,6.236,0,0,0-6.237-6.236H267.3a6.237,6.237,0,0,0-6.237,6.236V82.842A6.237,6.237,0,0,0,267.3,89.079Z" transform="translate(934.606 231.363)" fill="#aab5b9"/>
    <g id="user_1_" data-name="user (1)" transform="translate(1166.209 323.595)">
      <path id="Path_84" data-name="Path 84" d="M95.106,16.149a7.813,7.813,0,0,0,5.709-2.366,7.813,7.813,0,0,0,2.365-5.709,7.814,7.814,0,0,0-2.366-5.709,8.073,8.073,0,0,0-11.418,0,7.813,7.813,0,0,0-2.366,5.709A7.813,7.813,0,0,0,89.4,13.784,7.815,7.815,0,0,0,95.106,16.149Zm0,0" transform="translate(-81.333 0)" fill="#f5f6f7"/>
      <path id="Path_85" data-name="Path 85" d="M27.9,256.9a19.943,19.943,0,0,0-.272-2.118,16.689,16.689,0,0,0-.521-2.13,10.518,10.518,0,0,0-.875-1.986,7.5,7.5,0,0,0-1.32-1.721,5.82,5.82,0,0,0-1.9-1.192,6.555,6.555,0,0,0-2.421-.438,2.458,2.458,0,0,0-1.312.557c-.393.257-.854.553-1.367.881a7.834,7.834,0,0,1-1.769.779,6.869,6.869,0,0,1-4.327,0,7.819,7.819,0,0,1-1.768-.779c-.509-.325-.969-.622-1.368-.882a2.454,2.454,0,0,0-1.312-.557,6.545,6.545,0,0,0-2.421.439,5.816,5.816,0,0,0-1.9,1.192,7.5,7.5,0,0,0-1.32,1.72,10.538,10.538,0,0,0-.875,1.986,16.731,16.731,0,0,0-.521,2.13A19.874,19.874,0,0,0,.067,256.9c-.045.642-.067,1.307-.067,1.98a5.567,5.567,0,0,0,1.653,4.212,5.952,5.952,0,0,0,4.26,1.554H22.056a5.951,5.951,0,0,0,4.26-1.554,5.564,5.564,0,0,0,1.654-4.212c0-.675-.023-1.342-.068-1.98Zm0,0" transform="translate(0 -231.123)" fill="#f5f6f7"/>
    </g>
  </g>
</svg>
