<svg xmlns="http://www.w3.org/2000/svg" width="97.674" height="78" viewBox="0 0 97.674 78">
  <g id="Group_23" data-name="Group 23" transform="translate(-1401.839 -385)">
    <g id="Group_8" data-name="Group 8" transform="translate(15 -73.943)">
      <path id="Path_73" data-name="Path 73" d="M19.278,38.576a15.056,15.056,0,0,0,7.556,4.1l1.336-5.5-.526-1.577-2.527,1.022L24.333,32.7A8.491,8.491,0,0,0,19.278,38.576Z" transform="translate(1399.505 454.84)" fill="#f9f9f9"/>
      <path id="Path_74" data-name="Path 74" d="M36.716,20.206V13.511a.838.838,0,0,0-.837-.837H31.695A5.008,5.008,0,0,1,27.956,11h-.445A2.514,2.514,0,0,0,25,13.511v6.695a4.189,4.189,0,0,0,4.184,4.184h3.347A4.189,4.189,0,0,0,36.716,20.206Zm-6.695-5.858h1.674v3.347H30.021Zm-2.511,1.674a.837.837,0,1,1,.837-.837A.837.837,0,0,1,27.511,16.021Zm4.184,6.695H28.347V21.042h3.347a1.675,1.675,0,0,0,1.674-1.674h1.674A3.351,3.351,0,0,1,31.695,22.716Zm2.511-6.695a.837.837,0,1,1,.837-.837A.837.837,0,0,1,34.206,16.021Z" transform="translate(1398.572 458.379)" fill="#f9f9f9"/>
      <path id="Path_75" data-name="Path 75" d="M35.884,34.208l.42-2.1c-.135-.025-.273-.042-.41-.06l-1.907,1.411Z" transform="translate(1397.106 454.946)" fill="#f9f9f9"/>
      <path id="Path_76" data-name="Path 76" d="M42.674,18.674A1.675,1.675,0,0,0,41,17v3.347A1.675,1.675,0,0,0,42.674,18.674Z" transform="translate(1395.962 457.4)" fill="#f9f9f9"/>
      <path id="Path_77" data-name="Path 77" d="M42.971,38.576a8.493,8.493,0,0,0-5.056-5.882l-.782,3.914-2.615-1.035-.531,1.593L35.4,42.674a15.052,15.052,0,0,0,7.568-4.1Z" transform="translate(1397.106 454.84)" fill="#f9f9f9"/>
      <path id="Path_78" data-name="Path 78" d="M32.493,35.345l-.677-.268-.682.276.444,1.333h.467Z" transform="translate(1397.571 454.451)" fill="#f9f9f9"/>
      <path id="Path_79" data-name="Path 79" d="M31.722,44.021c.477,0,.947-.028,1.413-.072L31.863,39H31.5l-1.2,4.949C30.764,43.994,31.239,44.021,31.722,44.021Z" transform="translate(1397.708 453.811)" fill="#f9f9f9"/>
      <path id="Path_80" data-name="Path 80" d="M21.4,13.3a3.324,3.324,0,0,1,1.272-.254v-.837a4.191,4.191,0,0,1,3.646-4.15,5,5,0,0,1-.3-1.708h1.674a3.351,3.351,0,0,0,3.347,3.347h4.184a2.514,2.514,0,0,1,2.511,2.511v.837a3.324,3.324,0,0,1,1.272.254l.256-1.279A7.543,7.543,0,0,0,31.872,3H28.854a5.792,5.792,0,0,0-5.4,3.659l-.1.241-.377.251A4.431,4.431,0,0,0,21,10.846a4.476,4.476,0,0,0,.086.871Z" transform="translate(1399.225 459.684)" fill="#f9f9f9"/>
      <path id="Path_81" data-name="Path 81" d="M33.593,28.977c-.128.008-.257.019-.387.019H29.858c-.131,0-.259-.011-.388-.019l-.341,1.362,2.362,1.8,2.439-1.8Z" transform="translate(1397.898 455.446)" fill="#f9f9f9"/>
      <path id="Path_82" data-name="Path 82" d="M27.647,32.048c-.135.018-.27.034-.4.059l.418,2.093,1.838-.744Z" transform="translate(1398.206 454.945)" fill="#f9f9f9"/>
      <path id="Path_83" data-name="Path 83" d="M22.674,20.347V17a1.674,1.674,0,1,0,0,3.347Z" transform="translate(1399.225 457.4)" fill="#f9f9f9"/>
    </g>
    <g id="Group_22" data-name="Group 22" transform="translate(247.839 92)">
      <g id="contact_4_" data-name="contact (4)" transform="translate(1154 307.416)">
        <g id="Group_5" data-name="Group 5" transform="translate(0 0)">
          <path id="Path_36" data-name="Path 36" d="M95.3,151.963H60.612v6.789a10.851,10.851,0,0,1-10.839,10.839H47.9a10.852,10.852,0,0,1-10.839-10.839v-6.789H2.376A2.376,2.376,0,0,0,0,154.34v58.831a2.376,2.376,0,0,0,2.376,2.376H95.3a2.376,2.376,0,0,0,2.376-2.376V154.34A2.377,2.377,0,0,0,95.3,151.963Zm-8.357,47.2H58.665a3.835,3.835,0,0,1,0-7.671H86.942a3.835,3.835,0,1,1,0,7.671Zm0-16.613H58.665a3.835,3.835,0,0,1,0-7.671H86.942a3.835,3.835,0,1,1,0,7.671Z" transform="translate(0 -151.963)" fill="#fe9d2a"/>
        </g>
      </g>
      <g id="Rectangle_6" data-name="Rectangle 6" transform="translate(1159.124 313.497)" fill="none" stroke="#f5f6f7" stroke-width="2">
        <rect width="88.395" height="52.525" rx="2" stroke="none"/>
        <rect x="1" y="1" width="86.395" height="50.525" rx="1" fill="none"/>
      </g>
      <path id="Path_37" data-name="Path 37" d="M267.3,89.079h1.871a6.237,6.237,0,0,0,6.237-6.237V67.873a6.236,6.236,0,0,0-6.237-6.236H267.3a6.237,6.237,0,0,0-6.237,6.236V82.842A6.237,6.237,0,0,0,267.3,89.079Z" transform="translate(934.606 231.363)" fill="#fe9d2a"/>
      <g id="user_1_" data-name="user (1)" transform="translate(1166.209 323.595)">
        <path id="Path_84" data-name="Path 84" d="M95.106,16.149a7.813,7.813,0,0,0,5.709-2.366,7.813,7.813,0,0,0,2.365-5.709,7.814,7.814,0,0,0-2.366-5.709,8.073,8.073,0,0,0-11.418,0,7.813,7.813,0,0,0-2.366,5.709A7.813,7.813,0,0,0,89.4,13.784,7.815,7.815,0,0,0,95.106,16.149Zm0,0" transform="translate(-81.333 0)" fill="#f5f6f7"/>
        <path id="Path_85" data-name="Path 85" d="M27.9,256.9a19.943,19.943,0,0,0-.272-2.118,16.689,16.689,0,0,0-.521-2.13,10.518,10.518,0,0,0-.875-1.986,7.5,7.5,0,0,0-1.32-1.721,5.82,5.82,0,0,0-1.9-1.192,6.555,6.555,0,0,0-2.421-.438,2.458,2.458,0,0,0-1.312.557c-.393.257-.854.553-1.367.881a7.834,7.834,0,0,1-1.769.779,6.869,6.869,0,0,1-4.327,0,7.819,7.819,0,0,1-1.768-.779c-.509-.325-.969-.622-1.368-.882a2.454,2.454,0,0,0-1.312-.557,6.545,6.545,0,0,0-2.421.439,5.816,5.816,0,0,0-1.9,1.192,7.5,7.5,0,0,0-1.32,1.72,10.538,10.538,0,0,0-.875,1.986,16.731,16.731,0,0,0-.521,2.13A19.874,19.874,0,0,0,.067,256.9c-.045.642-.067,1.307-.067,1.98a5.567,5.567,0,0,0,1.653,4.212,5.952,5.952,0,0,0,4.26,1.554H22.056a5.951,5.951,0,0,0,4.26-1.554,5.564,5.564,0,0,0,1.654-4.212c0-.675-.023-1.342-.068-1.98Zm0,0" transform="translate(0 -231.123)" fill="#f5f6f7"/>
      </g>
    </g>
  </g>
</svg>
