<svg xmlns="http://www.w3.org/2000/svg" width="97.674" height="77" viewBox="0 0 97.674 77">
  <g id="Group_33" data-name="Group 33" transform="translate(-1150.839 -1399)">
    <g id="Group_21" data-name="Group 21" transform="translate(-3.161 1105)">
      <path id="Subtraction_3" data-name="Subtraction 3" d="M98.459-1041.416H5.537a2.379,2.379,0,0,1-2.376-2.376v-58.831A2.379,2.379,0,0,1,5.537-1105H40.223v6.789a10.852,10.852,0,0,0,10.84,10.84h1.871a10.852,10.852,0,0,0,10.84-10.84V-1105H98.459a2.379,2.379,0,0,1,2.376,2.377v58.831A2.379,2.379,0,0,1,98.459-1041.416Zm-75.717-31.211a6.55,6.55,0,0,0-2.42.438,5.825,5.825,0,0,0-1.9,1.192,7.487,7.487,0,0,0-1.319,1.721,10.507,10.507,0,0,0-.876,1.986,16.681,16.681,0,0,0-.521,2.13,19.982,19.982,0,0,0-.272,2.119c-.044.642-.067,1.308-.067,1.979a5.568,5.568,0,0,0,1.653,4.212,5.954,5.954,0,0,0,4.261,1.554H37.426a5.951,5.951,0,0,0,4.261-1.554,5.565,5.565,0,0,0,1.653-4.212c0-.679-.023-1.345-.068-1.98a19.821,19.821,0,0,0-.272-2.119,16.682,16.682,0,0,0-.521-2.13,10.507,10.507,0,0,0-.876-1.986,7.474,7.474,0,0,0-1.32-1.721,5.822,5.822,0,0,0-1.9-1.192,6.559,6.559,0,0,0-2.421-.438,2.454,2.454,0,0,0-1.312.557c-.43.28-.931.6-1.367.881a7.842,7.842,0,0,1-1.769.779,7.007,7.007,0,0,1-2.163.349,7.029,7.029,0,0,1-2.164-.349,7.856,7.856,0,0,1-1.768-.779c-.465-.3-.926-.594-1.368-.882A2.454,2.454,0,0,0,22.742-1072.627Zm39.083,7.155a3.84,3.84,0,0,0-3.836,3.835,3.84,3.84,0,0,0,3.836,3.836H90.1a3.841,3.841,0,0,0,3.836-3.836,3.84,3.84,0,0,0-3.836-3.835Zm-32.682-23.349a7.814,7.814,0,0,0-5.71,2.365,7.812,7.812,0,0,0-2.365,5.709,7.813,7.813,0,0,0,2.365,5.71,7.816,7.816,0,0,0,5.71,2.365,7.812,7.812,0,0,0,5.709-2.365,7.813,7.813,0,0,0,2.365-5.71,7.815,7.815,0,0,0-2.365-5.709A7.813,7.813,0,0,0,29.144-1088.821Zm32.682,6.736a3.84,3.84,0,0,0-3.836,3.836,3.84,3.84,0,0,0,3.836,3.835H90.1a3.841,3.841,0,0,0,3.836-3.835,3.84,3.84,0,0,0-3.836-3.836Z" transform="translate(1150.839 1412.416)" fill="#aab5b9"/>
      <path id="Path_37" data-name="Path 37" d="M267.3,89.079h1.871a6.237,6.237,0,0,0,6.237-6.237V67.873a6.236,6.236,0,0,0-6.237-6.236H267.3a6.237,6.237,0,0,0-6.237,6.236V82.842A6.237,6.237,0,0,0,267.3,89.079Z" transform="translate(934.606 232.363)" fill="#aab5b9"/>
    </g>
    <path id="Subtraction_4" data-name="Subtraction 4" d="M90.4,88.142H2a1,1,0,0,1-1-1V32.618a1,1,0,0,1,1-1H31.487v5.593A12.307,12.307,0,0,0,44.012,49.259h3.757A12.307,12.307,0,0,0,60.293,37.211V31.618H90.4a1,1,0,0,1,1,1V87.143A1,1,0,0,1,90.4,88.142Z" transform="translate(1154 1383.879)" fill="none" stroke="#f5f6f7" stroke-width="2"/>
  </g>
</svg>
