<svg xmlns="http://www.w3.org/2000/svg" width="65.464" height="80" viewBox="0 0 65.464 80">
  <g id="Group_28" data-name="Group 28" transform="translate(-923 -1759)">
    <g id="Group_24" data-name="Group 24" transform="translate(0 1011)">
      <path id="Subtraction_6" data-name="Subtraction 6" d="M17.379-955.255H12.308A3.213,3.213,0,0,1,9.1-958.466a3.213,3.213,0,0,1,3.209-3.208h.8V-987a10.9,10.9,0,0,0,6.418-2.143v27.459c-1.331,1.406-2.014,3.448-2.149,6.429Zm47.876,0H60.3c-.136-3.112-.854-5.216-2.261-6.624v-32.685H23.456A11.017,11.017,0,0,0,24-998a11.062,11.062,0,0,0-.407-2.984h11.98v-.209a3.213,3.213,0,0,1,3.209-3.208,3.212,3.212,0,0,1,3.208,3.208v.209H65.255a3.213,3.213,0,0,1,3.209,3.209,3.213,3.213,0,0,1-3.209,3.208h-.8v32.891h.8a3.213,3.213,0,0,1,3.209,3.208A3.213,3.213,0,0,1,65.255-955.256Zm-23.225,0H36.3c-.133-2.971-.812-5.01-2.138-6.418h9.929c-1.279,1.406-1.935,3.445-2.065,6.417Zm7.983-12.034a2.41,2.41,0,0,1-2.407-2.407v-16.044a2.41,2.41,0,0,1,2.407-2.407,2.409,2.409,0,0,1,2.407,2.407V-969.7A2.409,2.409,0,0,1,50.013-967.29Zm-7.221,0a2.409,2.409,0,0,1-2.407-2.407v-13.638a2.409,2.409,0,0,1,2.407-2.407,2.409,2.409,0,0,1,2.407,2.407V-969.7A2.409,2.409,0,0,1,42.792-967.29Zm-8.022,0a2.409,2.409,0,0,1-2.407-2.407v-17.649a2.409,2.409,0,0,1,2.407-2.407,2.409,2.409,0,0,1,2.407,2.407V-969.7A2.409,2.409,0,0,1,34.771-967.29Zm-7.22,0a2.41,2.41,0,0,1-2.407-2.407v-10.429a2.41,2.41,0,0,1,2.407-2.407,2.409,2.409,0,0,1,2.407,2.407V-969.7A2.409,2.409,0,0,1,27.551-967.29Z" transform="translate(920 1757)" fill="#aab5b9"/>
      <g id="Group_18" data-name="Group 18" transform="translate(-204 -405.5)">
        <g id="male" transform="translate(1162.781 1200.583)">
          <path id="Path_143" data-name="Path 143" d="M111.115,15.985c3.634,0,6.58-3.578,6.58-7.992S116.728,0,111.115,0s-6.58,3.578-6.58,7.993S107.481,15.985,111.115,15.985Z" transform="translate(-98.685)" fill="#aab5b9"/>
          <path id="Path_144" data-name="Path 144" d="M41.9,300.51c0-.269,0-.076,0,0Z" transform="translate(-41.895 -272.322)" fill="#aab5b9"/>
          <path id="Path_145" data-name="Path 145" d="M308.085,301.731c0-.074,0-.511,0,0Z" transform="translate(-283.227 -273.332)" fill="#aab5b9"/>
          <path id="Path_146" data-name="Path 146" d="M66.751,189.008c-.122-7.69-1.126-9.881-8.811-11.268l-3.6,2.786-3.6-2.786c-7.6,1.372-8.666,3.53-8.807,11.018-.011.611-.017.644-.019.573,0,.133,0,4.067,0,4.5H54.337c10.6,0,12.428.232,12.428.232s0-4.388,0-4.518A4.941,4.941,0,0,1,66.751,189.008Z" transform="translate(-41.907 -161.142)" fill="#aab5b9"/>
        </g>
        <g id="male-2" data-name="male" transform="translate(1137.912 1200.583)">
          <path id="Path_143-2" data-name="Path 143" d="M111.115,15.985c3.634,0,6.58-3.578,6.58-7.992S116.728,0,111.115,0s-6.58,3.578-6.58,7.993S107.481,15.985,111.115,15.985Z" transform="translate(-98.685)" fill="#aab5b9"/>
          <path id="Path_144-2" data-name="Path 144" d="M41.9,300.51c0-.269,0-.076,0,0Z" transform="translate(-41.895 -272.322)" fill="#aab5b9"/>
          <path id="Path_145-2" data-name="Path 145" d="M308.085,301.731c0-.074,0-.511,0,0Z" transform="translate(-283.227 -273.332)" fill="#aab5b9"/>
          <path id="Path_146-2" data-name="Path 146" d="M66.751,189.008c-.122-7.69-1.126-9.881-8.811-11.268l-3.6,2.852-3.6-2.852c-7.6,1.372-8.666,3.53-8.807,11.018-.011.611-.017.644-.019.573,0,.133,0,4.067,0,4.5H66.765s0-4.156,0-4.286A4.941,4.941,0,0,1,66.751,189.008Z" transform="translate(-41.907 -161.142)" fill="#aab5b9"/>
        </g>
      </g>
      <path id="plus" d="M11.658,5.462H7.772a.233.233,0,0,1-.229-.237V1.187a1.144,1.144,0,1,0-2.286,0V5.225a.233.233,0,0,1-.229.237H1.143a1.188,1.188,0,0,0,0,2.375H5.029a.233.233,0,0,1,.229.237v4.037a1.144,1.144,0,1,0,2.286,0V8.074a.233.233,0,0,1,.229-.237h3.886a1.188,1.188,0,0,0,0-2.375Zm0,0" transform="translate(924.076 759.362) rotate(-47)" fill="#aab5b9"/>
    </g>
    <g id="Ellipse_7" data-name="Ellipse 7" transform="translate(923 1759)" fill="none" stroke="#aab5b9" stroke-width="2.5">
      <circle cx="11" cy="11" r="11" stroke="none" fill="none"/>
      <circle cx="11" cy="11" r="9.75" fill="none"/>
    </g>
  </g>
</svg>
