<svg xmlns="http://www.w3.org/2000/svg" width="68.464" height="82" viewBox="0 0 68.464 82">
  <g id="Group_25" data-name="Group 25" transform="translate(-920 -746)">
    <g id="Group_18" data-name="Group 18" transform="translate(-204 -405.5)">
      <path id="Subtraction_2" data-name="Subtraction 2" d="M7.879,51.745H2.808a3.209,3.209,0,1,1,0-6.418h.8V12.434h-.8a3.209,3.209,0,1,1,0-6.418H26.072V5.808a3.209,3.209,0,0,1,6.418,0v.209H55.754a3.209,3.209,0,1,1,0,6.418h-.8V45.326h.8a3.209,3.209,0,1,1,0,6.418H50.795c-.135-3.111-.853-5.216-2.26-6.624V12.434H10.028V45.315c-1.332,1.407-2.014,3.45-2.149,6.429Zm24.651,0H26.8c-.134-2.972-.813-5.011-2.139-6.418h9.928c-1.278,1.406-1.934,3.445-2.064,6.417ZM40.513,39.71A2.41,2.41,0,0,1,38.105,37.3V21.259a2.407,2.407,0,0,1,4.814,0V37.3A2.409,2.409,0,0,1,40.513,39.71Zm-7.221,0A2.409,2.409,0,0,1,30.885,37.3V23.665a2.407,2.407,0,1,1,4.813,0V37.3A2.409,2.409,0,0,1,33.292,39.71Zm-8.022,0A2.409,2.409,0,0,1,22.864,37.3V19.654a2.407,2.407,0,1,1,4.813,0V37.3A2.409,2.409,0,0,1,25.27,39.71Zm-7.22,0A2.41,2.41,0,0,1,15.643,37.3V26.874a2.407,2.407,0,0,1,4.814,0V37.3A2.409,2.409,0,0,1,18.05,39.71Z" transform="translate(1133.5 1155.5)" fill="#fe9d2a"/>
      <g id="male" transform="translate(1162.781 1200.583)">
        <path id="Path_143" data-name="Path 143" d="M111.115,15.985c3.634,0,6.58-3.578,6.58-7.992S116.728,0,111.115,0s-6.58,3.578-6.58,7.993S107.481,15.985,111.115,15.985Z" transform="translate(-98.685)" fill="#fe9d2a"/>
        <path id="Path_144" data-name="Path 144" d="M41.9,300.51c0-.269,0-.076,0,0Z" transform="translate(-41.895 -272.322)" fill="#fe9d2a"/>
        <path id="Path_145" data-name="Path 145" d="M308.085,301.731c0-.074,0-.511,0,0Z" transform="translate(-283.227 -273.332)" fill="#fe9d2a"/>
        <path id="Path_146" data-name="Path 146" d="M66.751,189.008c-.122-7.69-1.126-9.881-8.811-11.268l-3.6,2.786-3.6-2.786c-7.6,1.372-8.666,3.53-8.807,11.018-.011.611-.017.644-.019.573,0,.133,0,4.067,0,4.5H54.337c10.6,0,12.428.232,12.428.232s0-4.388,0-4.518A4.941,4.941,0,0,1,66.751,189.008Z" transform="translate(-41.907 -161.142)" fill="#fe9d2a"/>
      </g>
      <g id="male-2" data-name="male" transform="translate(1137.912 1200.583)">
        <path id="Path_143-2" data-name="Path 143" d="M111.115,15.985c3.634,0,6.58-3.578,6.58-7.992S116.728,0,111.115,0s-6.58,3.578-6.58,7.993S107.481,15.985,111.115,15.985Z" transform="translate(-98.685)" fill="#fe9d2a"/>
        <path id="Path_144-2" data-name="Path 144" d="M41.9,300.51c0-.269,0-.076,0,0Z" transform="translate(-41.895 -272.322)" fill="#fe9d2a"/>
        <path id="Path_145-2" data-name="Path 145" d="M308.085,301.731c0-.074,0-.511,0,0Z" transform="translate(-283.227 -273.332)" fill="#fe9d2a"/>
        <path id="Path_146-2" data-name="Path 146" d="M66.751,189.008c-.122-7.69-1.126-9.881-8.811-11.268l-3.6,2.852-3.6-2.852c-7.6,1.372-8.666,3.53-8.807,11.018-.011.611-.017.644-.019.573,0,.133,0,4.067,0,4.5H66.765s0-4.156,0-4.286A4.941,4.941,0,0,1,66.751,189.008Z" transform="translate(-41.907 -161.142)" fill="#fe9d2a"/>
      </g>
    </g>
    <g id="Ellipse_6" data-name="Ellipse 6" transform="translate(920 746)" fill="#f5f6f7" stroke="#fe9d2a" stroke-width="4">
      <circle cx="13" cy="13" r="13" stroke="none"/>
      <circle cx="13" cy="13" r="11" fill="none"/>
    </g>
    <path id="plus" d="M11.658,5.462H7.772a.233.233,0,0,1-.229-.237V1.187a1.144,1.144,0,1,0-2.286,0V5.225a.233.233,0,0,1-.229.237H1.143a1.188,1.188,0,0,0,0,2.375H5.029a.233.233,0,0,1,.229.237v4.037a1.144,1.144,0,1,0,2.286,0V8.074a.233.233,0,0,1,.229-.237h3.886a1.188,1.188,0,0,0,0-2.375Zm0,0" transform="translate(924.076 759.362) rotate(-47)" fill="#fe9d2a"/>
  </g>
</svg>
