<svg xmlns="http://www.w3.org/2000/svg" width="17.185" height="11.717" viewBox="0 0 13.367 13.373">
  <g id="Icon_ionic-ios-close-circle-outline" data-name="Icon ionic-ios-close-circle-outline" transform="translate(-11.309 -11.304)">
    <path id="Path_11990" data-name="Path 11990" d="M25.333,23.448l-4.4-4.4,4.4-4.4a1.333,1.333,0,0,0-1.885-1.885l-4.4,4.4-4.4-4.4a1.333,1.333,0,1,0-1.885,1.885l4.4,4.4-4.4,4.4a1.289,1.289,0,0,0,0,1.885,1.324,1.324,0,0,0,1.885,0l4.4-4.4,4.4,4.4a1.339,1.339,0,0,0,1.885,0A1.324,1.324,0,0,0,25.333,23.448Z" transform="translate(-1.05 -1.05)" fill="#fe9d2a"/>
  </g>
</svg>
