<svg xmlns="http://www.w3.org/2000/svg" width="17.185" height="11.717" viewBox="0 0 13.663 13.67">
  <g id="Icon_ionic-ios-close-circle-outline" data-name="Icon ionic-ios-close-circle-outline" transform="translate(86.641 -57)">
    <path id="Path_12599" data-name="Path 12599" d="M25.62,23.694,21.127,19.2l4.493-4.493a1.363,1.363,0,1,0-1.927-1.927L19.2,17.274,14.706,12.78a1.363,1.363,0,0,0-1.927,1.927L17.273,19.2l-4.493,4.493a1.317,1.317,0,0,0,0,1.927,1.354,1.354,0,0,0,1.927,0L19.2,21.128l4.493,4.493a1.369,1.369,0,0,0,1.927,0A1.354,1.354,0,0,0,25.62,23.694Z" transform="translate(-99 44.646)" fill="#fff"/>
  </g>
</svg>
